<svg width="16" height="9" viewBox="0 0 16 9" fill="none" xmlns="http://www.w3.org/2000/svg">
<path id="Vector" fill-rule="evenodd" clip-rule="evenodd" d="M9.2766 8.29832C9.06563 8.50923 8.77953 8.62771 8.48122 8.62771C8.18291 8.62771 7.89681 8.50923 7.68585 8.29832L1.32172 1.9342C1.21427 1.83042 1.12857 1.70628 1.06961 1.56903C1.01065 1.43178 0.979612 1.28415 0.978314 1.13478C0.977016 0.985399 1.00548 0.83726 1.06205 0.699001C1.11861 0.560743 1.20215 0.435134 1.30778 0.329505C1.41341 0.223875 1.53901 0.140341 1.67727 0.0837746C1.81553 0.0272086 1.96367 -0.00125557 2.11305 4.24767e-05C2.26242 0.00134052 2.41005 0.0323751 2.5473 0.0913352C2.68456 0.150295 2.80869 0.236 2.91247 0.343449L8.48122 5.9122L14.05 0.343449C14.2621 0.138521 14.5463 0.0251275 14.8413 0.0276907C15.1363 0.0302539 15.4184 0.148569 15.627 0.357153C15.8356 0.565737 15.9539 0.847901 15.9565 1.14287C15.959 1.43784 15.8456 1.72202 15.6407 1.9342L9.2766 8.29832Z" fill="black"/>
</svg>
